<svg width="32" height="32" viewBox="0 0 32 32" fill="none" xmlns="http://www.w3.org/2000/svg">
<g clip-path="url(#clip0_3674_150)">
<path d="M16 32C24.8366 32 32 24.8366 32 16C32 7.16344 24.8366 0 16 0C7.16344 0 0 7.16344 0 16C0 24.8366 7.16344 32 16 32Z" fill="#29E58A"/>
<path d="M18.5085 18.5833L21.7098 21.7547L20.2075 23.2425L17.0062 20.0717C16.8713 19.9374 16.7113 19.831 16.5351 19.7589C16.359 19.6867 16.1703 19.6501 15.98 19.6513C15.5908 19.6513 15.2295 19.7994 14.9545 20.0717L11.7532 23.2431L10.2509 21.7554L13.4522 18.5833H18.5085ZM19.0425 17.6694L23.4147 18.8284L23.964 16.794L19.5918 15.6351C19.4079 15.5872 19.2354 15.5034 19.0842 15.3883C18.933 15.2733 18.8062 15.1294 18.7111 14.9649C18.6154 14.8021 18.5533 14.6218 18.5285 14.4346C18.5036 14.2474 18.5165 14.0571 18.5663 13.875L19.7366 9.54462L17.6829 9L16.512 13.3311L19.0398 17.6668L19.0425 17.6694ZM12.9215 17.6694L8.5486 18.8284L8 16.794L12.3722 15.6351C12.5561 15.5872 12.7286 15.5034 12.8798 15.3883C13.031 15.2733 13.1578 15.1294 13.2529 14.9649C13.3486 14.8021 13.4107 14.6218 13.4355 14.4346C13.4604 14.2474 13.4475 14.0571 13.3977 13.875L12.2274 9.54462L14.2811 9L15.4513 13.3311L12.9235 17.6668L12.9215 17.6694Z" fill="white"/>
</g>
<defs>
<clipPath id="clip0_3674_150">
<rect width="32" height="32" rx="16" fill="white"/>
</clipPath>
</defs>
</svg>
